<svg xmlns="http://www.w3.org/2000/svg" width="800" height="500" viewBox="0 0 800 500">
  <defs>
    <linearGradient id="bg" x1="0%" y1="0%" x2="100%" y2="100%">
      <stop offset="0%" style="stop-color:#1a1a2e"/>
      <stop offset="50%" style="stop-color:#16213e"/>
      <stop offset="100%" style="stop-color:#0f3460"/>
    </linearGradient>
    <linearGradient id="green" x1="0%" y1="0%" x2="100%" y2="100%">
      <stop offset="0%" style="stop-color:#1DB954"/>
      <stop offset="100%" style="stop-color:#1ed760"/>
    </linearGradient>
  </defs>
  <rect width="800" height="500" fill="url(#bg)" rx="12"/>
  
  <!-- Sound wave bars -->
  <rect x="180" y="200" width="8" height="60" rx="4" fill="#1DB954" opacity="0.4"/>
  <rect x="198" y="170" width="8" height="120" rx="4" fill="#1DB954" opacity="0.5"/>
  <rect x="216" y="190" width="8" height="80" rx="4" fill="#1DB954" opacity="0.6"/>
  <rect x="234" y="150" width="8" height="160" rx="4" fill="#1ed760" opacity="0.7"/>
  <rect x="252" y="180" width="8" height="100" rx="4" fill="#1DB954" opacity="0.5"/>
  <rect x="270" y="140" width="8" height="180" rx="4" fill="#1ed760" opacity="0.8"/>
  <rect x="288" y="170" width="8" height="120" rx="4" fill="#1DB954" opacity="0.6"/>
  <rect x="306" y="130" width="8" height="200" rx="4" fill="#1ed760" opacity="0.9"/>
  <rect x="324" y="160" width="8" height="140" rx="4" fill="#1DB954" opacity="0.7"/>
  <rect x="342" y="145" width="8" height="170" rx="4" fill="#1ed760" opacity="0.8"/>
  <rect x="360" y="175" width="8" height="110" rx="4" fill="#1DB954" opacity="0.6"/>
  <rect x="378" y="155" width="8" height="150" rx="4" fill="#1ed760" opacity="0.7"/>
  <rect x="396" y="140" width="8" height="180" rx="4" fill="#1DB954" opacity="0.8"/>
  <rect x="414" y="165" width="8" height="130" rx="4" fill="#1ed760" opacity="0.6"/>
  <rect x="432" y="135" width="8" height="190" rx="4" fill="#1DB954" opacity="0.9"/>
  <rect x="450" y="160" width="8" height="140" rx="4" fill="#1ed760" opacity="0.7"/>
  <rect x="468" y="180" width="8" height="100" rx="4" fill="#1DB954" opacity="0.5"/>
  <rect x="486" y="150" width="8" height="160" rx="4" fill="#1ed760" opacity="0.8"/>
  <rect x="504" y="170" width="8" height="120" rx="4" fill="#1DB954" opacity="0.6"/>
  <rect x="522" y="190" width="8" height="80" rx="4" fill="#1ed760" opacity="0.5"/>
  <rect x="540" y="155" width="8" height="150" rx="4" fill="#1DB954" opacity="0.7"/>
  <rect x="558" y="175" width="8" height="110" rx="4" fill="#1ed760" opacity="0.6"/>
  <rect x="576" y="195" width="8" height="70" rx="4" fill="#1DB954" opacity="0.4"/>
  <rect x="594" y="185" width="8" height="90" rx="4" fill="#1ed760" opacity="0.5"/>
  <rect x="612" y="205" width="8" height="50" rx="4" fill="#1DB954" opacity="0.3"/>
  
  <!-- Spotify-style circle play icon -->
  <circle cx="400" cy="230" r="45" fill="none" stroke="#1ed760" stroke-width="2" opacity="0.3"/>
  <polygon points="388,210 388,250 420,230" fill="#1ed760" opacity="0.6"/>
  
  <!-- Progress bar -->
  <rect x="200" y="370" width="400" height="4" rx="2" fill="#333" opacity="0.5"/>
  <rect x="200" y="370" width="260" height="4" rx="2" fill="url(#green)" opacity="0.8"/>
  <circle cx="460" cy="372" r="6" fill="#1ed760" opacity="0.9"/>
  
  <!-- Text -->
  <text x="400" y="440" text-anchor="middle" fill="white" font-family="system-ui, -apple-system, sans-serif" font-size="22" font-weight="600" letter-spacing="1">Spotify Music Pipeline</text>
  <text x="400" y="470" text-anchor="middle" fill="#a0a0b0" font-family="system-ui, sans-serif" font-size="14" letter-spacing="2">FLASK  •  SOCKET.IO  •  YT-DLP  •  FFMPEG</text>
</svg>